# xmcd CD database file generated by Grip 3.2.0
# 
# Track frame offsets:
#       150
#       24629
#       40383
#       56112
#       70387
#       86402
#       109711
#       134481
#       146272
#       165900
#       172497
#       187852
#       206710
#       220658
# 
# Disc length: 3109 seconds
# 
# Revision: 8
# Processed by: cddbd v1.5.2PL0 Copyright (c) Steve Scherf et al.
# Submitted via: Grip 3.2.0
# 
DISCID=cc0c230e
DTITLE=Eric Bibb - Roadworks
DYEAR=1900
DGENRE=Blues
TTITLE0=Tell Ol' Bill
TTITLE1=New Automobile
TTITLE2=Sugar Mama
TTITLE3=Candy Man
TTITLE4=Panama Hat
TTITLE5=Goin' Down Slow
TTITLE6=For You
TTITLE7=Gonna Walk This Road
TTITLE8=I Want Jesus To Walk With Me
TTITLE9=Sebastian's Tune
TTITLE10=Shavin' Talk
TTITLE11=Saucer 'n' Cup
TTITLE12=Gratitude
TTITLE13=Lazy Afternoon (Duet With Leon Bibb)
EXTD=ID3G: 0
EXTT0=
EXTT1=
EXTT2=
EXTT3=
EXTT4=
EXTT5=
EXTT6=
EXTT7=
EXTT8=
EXTT9=
EXTT10=
EXTT11=
EXTT12=
EXTT13=
PLAYORDER=
